<svg width="64" height="64" viewBox="0 0 64 64" xmlns="http://www.w3.org/2000/svg">
  <rect width="64" height="64" rx="14" fill="#05060a"/>
  <rect x="6" y="6" width="52" height="52" rx="12" fill="#d9a441"/>
  <path
    d="M32 10
       C33.4 10 34.3 11.3 34.3 13.2
       L34.3 24.6
       L50.5 33.6
       C51.6 34.2 51.6 36.2 50.5 36.8
       L34.3 34.6
       L34.3 44.4
       L39.6 48.8
       C40.3 49.4 40.3 50.8 39.6 51.3
       L32 49.3
       L24.4 51.3
       C23.7 50.8 23.7 49.4 24.4 48.8
       L29.7 44.4
       L29.7 34.6
       L13.5 36.8
       C12.4 36.2 12.4 34.2 13.5 33.6
       L29.7 24.6
       L29.7 13.2
       C29.7 11.3 30.6 10 32 10 Z"
    fill="#05060a"
  />
</svg>
